<?xml version="1.0" encoding="UTF-8" standalone="no"?>
<!DOCTYPE svg PUBLIC "-//W3C//DTD SVG 1.1//EN"
 "http://www.w3.org/Graphics/SVG/1.1/DTD/svg11.dtd">
<!-- Generated by graphviz version 2.47.3 (20210619.1520)
 -->
<!-- Title: dependencies Pages: 1 -->
<svg width="1668pt" height="174pt"
 viewBox="0.00 0.00 1668.00 173.80" xmlns="http://www.w3.org/2000/svg" xmlns:xlink="http://www.w3.org/1999/xlink">
<g id="graph0" class="graph" transform="scale(1 1) rotate(0) translate(4 169.8)">
<title>dependencies</title>
<polygon fill="white" stroke="transparent" points="-4,4 -4,-169.8 1664,-169.8 1664,4 -4,4"/>
<text text-anchor="middle" x="830" y="-8.2" font-family="sans-serif" font-size="14.00">dependencies</text>
<g id="clust1" class="cluster">
<title>cluster_RequestedBooksModule</title>
<polygon fill="none" stroke="black" stroke-dasharray="1,5" points="8,-32.8 8,-157.8 1652,-157.8 1652,-32.8 8,-32.8"/>
</g>
<g id="clust12" class="cluster">
<title>cluster_RequestedBooksModule_providers</title>
<polygon fill="none" stroke="black" points="1402,-40.8 1402,-92.8 1644,-92.8 1644,-40.8 1402,-40.8"/>
</g>
<g id="clust2" class="cluster">
<title>cluster_RequestedBooksModule_declarations</title>
<polygon fill="none" stroke="black" points="138,-40.8 138,-92.8 1394,-92.8 1394,-40.8 138,-40.8"/>
</g>
<g id="clust9" class="cluster">
<title>cluster_RequestedBooksModule_imports</title>
<polygon fill="none" stroke="black" points="16,-40.8 16,-92.8 130,-92.8 130,-40.8 16,-40.8"/>
</g>
<!-- AddRequestedBookComponent -->
<g id="node1" class="node">
<title>AddRequestedBookComponent</title>
<polygon fill="#ffffb3" stroke="black" points="1386.09,-84.8 1191.91,-84.8 1191.91,-48.8 1386.09,-48.8 1386.09,-84.8"/>
<text text-anchor="middle" x="1289" y="-62.6" font-family="Times,serif" font-size="14.00">AddRequestedBookComponent</text>
</g>
<!-- RequestedBooksModule -->
<g id="node7" class="node">
<title>RequestedBooksModule</title>
<polygon fill="#8dd3c7" stroke="black" points="833.65,-149.8 830.65,-153.8 809.65,-153.8 806.65,-149.8 680.35,-149.8 680.35,-113.8 833.65,-113.8 833.65,-149.8"/>
<text text-anchor="middle" x="757" y="-127.6" font-family="Times,serif" font-size="14.00">RequestedBooksModule</text>
</g>
<!-- AddRequestedBookComponent&#45;&gt;RequestedBooksModule -->
<g id="edge1" class="edge">
<title>AddRequestedBookComponent&#45;&gt;RequestedBooksModule</title>
<path fill="none" stroke="black" d="M1289,-84.91C1289,-104.14 1289,-131.8 1289,-131.8 1289,-131.8 843.79,-131.8 843.79,-131.8"/>
<polygon fill="black" stroke="black" points="843.79,-128.3 833.79,-131.8 843.79,-135.3 843.79,-128.3"/>
</g>
<!-- EditRequestedBookComponent -->
<g id="node2" class="node">
<title>EditRequestedBookComponent</title>
<polygon fill="#ffffb3" stroke="black" points="1173.82,-84.8 980.18,-84.8 980.18,-48.8 1173.82,-48.8 1173.82,-84.8"/>
<text text-anchor="middle" x="1077" y="-62.6" font-family="Times,serif" font-size="14.00">EditRequestedBookComponent</text>
</g>
<!-- EditRequestedBookComponent&#45;&gt;RequestedBooksModule -->
<g id="edge2" class="edge">
<title>EditRequestedBookComponent&#45;&gt;RequestedBooksModule</title>
<path fill="none" stroke="black" d="M1077,-84.83C1077,-101.2 1077,-122.8 1077,-122.8 1077,-122.8 843.65,-122.8 843.65,-122.8"/>
<polygon fill="black" stroke="black" points="843.65,-119.3 833.65,-122.8 843.65,-126.3 843.65,-119.3"/>
</g>
<!-- RequestedBookListComponent -->
<g id="node3" class="node">
<title>RequestedBookListComponent</title>
<polygon fill="#ffffb3" stroke="black" points="961.76,-84.8 770.24,-84.8 770.24,-48.8 961.76,-48.8 961.76,-84.8"/>
<text text-anchor="middle" x="866" y="-62.6" font-family="Times,serif" font-size="14.00">RequestedBookListComponent</text>
</g>
<!-- RequestedBookListComponent&#45;&gt;RequestedBooksModule -->
<g id="edge3" class="edge">
<title>RequestedBookListComponent&#45;&gt;RequestedBooksModule</title>
<path fill="none" stroke="black" d="M801.97,-84.91C801.97,-84.91 801.97,-103.79 801.97,-103.79"/>
<polygon fill="black" stroke="black" points="798.47,-103.79 801.97,-113.79 805.47,-103.79 798.47,-103.79"/>
</g>
<!-- RequestedBookModalComponent -->
<g id="node4" class="node">
<title>RequestedBookModalComponent</title>
<polygon fill="#ffffb3" stroke="black" points="752.03,-84.8 545.97,-84.8 545.97,-48.8 752.03,-48.8 752.03,-84.8"/>
<text text-anchor="middle" x="649" y="-62.6" font-family="Times,serif" font-size="14.00">RequestedBookModalComponent</text>
</g>
<!-- RequestedBookModalComponent&#45;&gt;RequestedBooksModule -->
<g id="edge4" class="edge">
<title>RequestedBookModalComponent&#45;&gt;RequestedBooksModule</title>
<path fill="none" stroke="black" d="M716.22,-84.91C716.22,-84.91 716.22,-103.79 716.22,-103.79"/>
<polygon fill="black" stroke="black" points="712.72,-103.79 716.22,-113.79 719.72,-103.79 712.72,-103.79"/>
</g>
<!-- RequiredBookComponent -->
<g id="node5" class="node">
<title>RequiredBookComponent</title>
<polygon fill="#ffffb3" stroke="black" points="527.49,-84.8 364.51,-84.8 364.51,-48.8 527.49,-48.8 527.49,-84.8"/>
<text text-anchor="middle" x="446" y="-62.6" font-family="Times,serif" font-size="14.00">RequiredBookComponent</text>
</g>
<!-- RequiredBookComponent&#45;&gt;RequestedBooksModule -->
<g id="edge5" class="edge">
<title>RequiredBookComponent&#45;&gt;RequestedBooksModule</title>
<path fill="none" stroke="black" d="M446,-84.83C446,-101.2 446,-122.8 446,-122.8 446,-122.8 670.12,-122.8 670.12,-122.8"/>
<polygon fill="black" stroke="black" points="670.12,-126.3 680.12,-122.8 670.12,-119.3 670.12,-126.3"/>
</g>
<!-- ViewRequestedBookComponent -->
<g id="node6" class="node">
<title>ViewRequestedBookComponent</title>
<polygon fill="#ffffb3" stroke="black" points="346.3,-84.8 145.7,-84.8 145.7,-48.8 346.3,-48.8 346.3,-84.8"/>
<text text-anchor="middle" x="246" y="-62.6" font-family="Times,serif" font-size="14.00">ViewRequestedBookComponent</text>
</g>
<!-- ViewRequestedBookComponent&#45;&gt;RequestedBooksModule -->
<g id="edge6" class="edge">
<title>ViewRequestedBookComponent&#45;&gt;RequestedBooksModule</title>
<path fill="none" stroke="black" d="M246,-84.91C246,-104.14 246,-131.8 246,-131.8 246,-131.8 670.22,-131.8 670.22,-131.8"/>
<polygon fill="black" stroke="black" points="670.22,-135.3 680.22,-131.8 670.22,-128.3 670.22,-135.3"/>
</g>
<!-- SharedModule -->
<g id="node8" class="node">
<title>SharedModule</title>
<polygon fill="#8dd3c7" stroke="black" points="122.42,-84.8 119.42,-88.8 98.42,-88.8 95.42,-84.8 23.58,-84.8 23.58,-48.8 122.42,-48.8 122.42,-84.8"/>
<text text-anchor="middle" x="73" y="-62.6" font-family="Times,serif" font-size="14.00">SharedModule</text>
</g>
<!-- SharedModule&#45;&gt;RequestedBooksModule -->
<g id="edge7" class="edge">
<title>SharedModule&#45;&gt;RequestedBooksModule</title>
<path fill="none" stroke="black" d="M73,-85.09C73,-107.01 73,-140.8 73,-140.8 73,-140.8 670.2,-140.8 670.2,-140.8"/>
<polygon fill="black" stroke="black" points="670.2,-144.3 680.2,-140.8 670.2,-137.3 670.2,-144.3"/>
</g>
<!-- RequestedBookValidation -->
<g id="node9" class="node">
<title>RequestedBookValidation</title>
<ellipse fill="#fdb462" stroke="black" cx="1523" cy="-66.8" rx="112.9" ry="18"/>
<text text-anchor="middle" x="1523" y="-62.6" font-family="Times,serif" font-size="14.00">RequestedBookValidation</text>
</g>
<!-- RequestedBookValidation&#45;&gt;RequestedBooksModule -->
<g id="edge8" class="edge">
<title>RequestedBookValidation&#45;&gt;RequestedBooksModule</title>
<path fill="none" stroke="black" d="M1523,-85.09C1523,-107.01 1523,-140.8 1523,-140.8 1523,-140.8 843.95,-140.8 843.95,-140.8"/>
<polygon fill="black" stroke="black" points="843.95,-137.3 833.95,-140.8 843.95,-144.3 843.95,-137.3"/>
</g>
</g>
</svg>
