<?xml version="1.0" encoding="UTF-8" standalone="no"?>
<!DOCTYPE svg PUBLIC "-//W3C//DTD SVG 1.1//EN"
 "http://www.w3.org/Graphics/SVG/1.1/DTD/svg11.dtd">
<!-- Generated by graphviz version 2.47.3 (20210619.1520)
 -->
<!-- Title: dependencies Pages: 1 -->
<svg width="1600pt" height="174pt"
 viewBox="0.00 0.00 1600.00 173.80" xmlns="http://www.w3.org/2000/svg" xmlns:xlink="http://www.w3.org/1999/xlink">
<g id="graph0" class="graph" transform="scale(1 1) rotate(0) translate(4 169.8)">
<title>dependencies</title>
<polygon fill="white" stroke="transparent" points="-4,4 -4,-169.8 1596,-169.8 1596,4 -4,4"/>
<text text-anchor="middle" x="796" y="-8.2" font-family="sans-serif" font-size="14.00">dependencies</text>
<g id="clust1" class="cluster">
<title>cluster_BookModule</title>
<polygon fill="none" stroke="black" stroke-dasharray="1,5" points="8,-32.8 8,-157.8 1584,-157.8 1584,-32.8 8,-32.8"/>
</g>
<g id="clust2" class="cluster">
<title>cluster_BookModule_declarations</title>
<polygon fill="none" stroke="black" points="308,-40.8 308,-92.8 1576,-92.8 1576,-40.8 308,-40.8"/>
</g>
<g id="clust11" class="cluster">
<title>cluster_BookModule_imports</title>
<polygon fill="none" stroke="black" points="186,-40.8 186,-92.8 300,-92.8 300,-40.8 186,-40.8"/>
</g>
<g id="clust14" class="cluster">
<title>cluster_BookModule_providers</title>
<polygon fill="none" stroke="black" points="16,-40.8 16,-92.8 178,-92.8 178,-40.8 16,-40.8"/>
</g>
<!-- AddBookComponent -->
<g id="node1" class="node">
<title>AddBookComponent</title>
<polygon fill="#ffffb3" stroke="black" points="1567.78,-84.8 1432.22,-84.8 1432.22,-48.8 1567.78,-48.8 1567.78,-84.8"/>
<text text-anchor="middle" x="1500" y="-62.6" font-family="Times,serif" font-size="14.00">AddBookComponent</text>
</g>
<!-- BookModule -->
<g id="node9" class="node">
<title>BookModule</title>
<polygon fill="#8dd3c7" stroke="black" points="854.89,-149.8 851.89,-153.8 830.89,-153.8 827.89,-149.8 765.11,-149.8 765.11,-113.8 854.89,-113.8 854.89,-149.8"/>
<text text-anchor="middle" x="810" y="-127.6" font-family="Times,serif" font-size="14.00">BookModule</text>
</g>
<!-- AddBookComponent&#45;&gt;BookModule -->
<g id="edge1" class="edge">
<title>AddBookComponent&#45;&gt;BookModule</title>
<path fill="none" stroke="black" d="M1500,-84.81C1500,-107.29 1500,-142.8 1500,-142.8 1500,-142.8 865.01,-142.8 865.01,-142.8"/>
<polygon fill="black" stroke="black" points="865.01,-139.3 855.01,-142.8 865.01,-146.3 865.01,-139.3"/>
</g>
<!-- BookComponent -->
<g id="node2" class="node">
<title>BookComponent</title>
<polygon fill="#ffffb3" stroke="black" points="1413.67,-84.8 1302.33,-84.8 1302.33,-48.8 1413.67,-48.8 1413.67,-84.8"/>
<text text-anchor="middle" x="1358" y="-62.6" font-family="Times,serif" font-size="14.00">BookComponent</text>
</g>
<!-- BookComponent&#45;&gt;BookModule -->
<g id="edge2" class="edge">
<title>BookComponent&#45;&gt;BookModule</title>
<path fill="none" stroke="black" d="M1358,-84.93C1358,-105.37 1358,-135.8 1358,-135.8 1358,-135.8 865.31,-135.8 865.31,-135.8"/>
<polygon fill="black" stroke="black" points="865.31,-132.3 855.31,-135.8 865.31,-139.3 865.31,-132.3"/>
</g>
<!-- BookListComponent -->
<g id="node3" class="node">
<title>BookListComponent</title>
<polygon fill="#ffffb3" stroke="black" points="1283.95,-84.8 1150.05,-84.8 1150.05,-48.8 1283.95,-48.8 1283.95,-84.8"/>
<text text-anchor="middle" x="1217" y="-62.6" font-family="Times,serif" font-size="14.00">BookListComponent</text>
</g>
<!-- BookListComponent&#45;&gt;BookModule -->
<g id="edge3" class="edge">
<title>BookListComponent&#45;&gt;BookModule</title>
<path fill="none" stroke="black" d="M1217,-85.07C1217,-103.36 1217,-128.8 1217,-128.8 1217,-128.8 865.11,-128.8 865.11,-128.8"/>
<polygon fill="black" stroke="black" points="865.11,-125.3 855.11,-128.8 865.11,-132.3 865.11,-125.3"/>
</g>
<!-- BookNumberComponent -->
<g id="node4" class="node">
<title>BookNumberComponent</title>
<polygon fill="#ffffb3" stroke="black" points="1132.54,-84.8 975.46,-84.8 975.46,-48.8 1132.54,-48.8 1132.54,-84.8"/>
<text text-anchor="middle" x="1054" y="-62.6" font-family="Times,serif" font-size="14.00">BookNumberComponent</text>
</g>
<!-- BookNumberComponent&#45;&gt;BookModule -->
<g id="edge4" class="edge">
<title>BookNumberComponent&#45;&gt;BookModule</title>
<path fill="none" stroke="black" d="M1054,-84.81C1054,-100.85 1054,-121.8 1054,-121.8 1054,-121.8 865.04,-121.8 865.04,-121.8"/>
<polygon fill="black" stroke="black" points="865.04,-118.3 855.04,-121.8 865.04,-125.3 865.04,-118.3"/>
</g>
<!-- EditBookComponent -->
<g id="node5" class="node">
<title>EditBookComponent</title>
<polygon fill="#ffffb3" stroke="black" points="957.5,-84.8 822.5,-84.8 822.5,-48.8 957.5,-48.8 957.5,-84.8"/>
<text text-anchor="middle" x="890" y="-62.6" font-family="Times,serif" font-size="14.00">EditBookComponent</text>
</g>
<!-- EditBookComponent&#45;&gt;BookModule -->
<g id="edge5" class="edge">
<title>EditBookComponent&#45;&gt;BookModule</title>
<path fill="none" stroke="black" d="M838.72,-84.91C838.72,-84.91 838.72,-103.79 838.72,-103.79"/>
<polygon fill="black" stroke="black" points="835.22,-103.79 838.72,-113.79 842.22,-103.79 835.22,-103.79"/>
</g>
<!-- ModalBookComponent -->
<g id="node6" class="node">
<title>ModalBookComponent</title>
<polygon fill="#ffffb3" stroke="black" points="804.22,-84.8 655.78,-84.8 655.78,-48.8 804.22,-48.8 804.22,-84.8"/>
<text text-anchor="middle" x="730" y="-62.6" font-family="Times,serif" font-size="14.00">ModalBookComponent</text>
</g>
<!-- ModalBookComponent&#45;&gt;BookModule -->
<g id="edge6" class="edge">
<title>ModalBookComponent&#45;&gt;BookModule</title>
<path fill="none" stroke="black" d="M784.58,-84.91C784.58,-84.91 784.58,-103.79 784.58,-103.79"/>
<polygon fill="black" stroke="black" points="781.08,-103.79 784.58,-113.79 788.08,-103.79 781.08,-103.79"/>
</g>
<!-- StatisticsBookComponent -->
<g id="node7" class="node">
<title>StatisticsBookComponent</title>
<polygon fill="#ffffb3" stroke="black" points="638.22,-84.8 475.78,-84.8 475.78,-48.8 638.22,-48.8 638.22,-84.8"/>
<text text-anchor="middle" x="557" y="-62.6" font-family="Times,serif" font-size="14.00">StatisticsBookComponent</text>
</g>
<!-- StatisticsBookComponent&#45;&gt;BookModule -->
<g id="edge7" class="edge">
<title>StatisticsBookComponent&#45;&gt;BookModule</title>
<path fill="none" stroke="black" d="M557,-84.81C557,-100.85 557,-121.8 557,-121.8 557,-121.8 755.06,-121.8 755.06,-121.8"/>
<polygon fill="black" stroke="black" points="755.06,-125.3 765.06,-121.8 755.06,-118.3 755.06,-125.3"/>
</g>
<!-- ViewBookComponent -->
<g id="node8" class="node">
<title>ViewBookComponent</title>
<polygon fill="#ffffb3" stroke="black" points="457.99,-84.8 316.01,-84.8 316.01,-48.8 457.99,-48.8 457.99,-84.8"/>
<text text-anchor="middle" x="387" y="-62.6" font-family="Times,serif" font-size="14.00">ViewBookComponent</text>
</g>
<!-- ViewBookComponent&#45;&gt;BookModule -->
<g id="edge8" class="edge">
<title>ViewBookComponent&#45;&gt;BookModule</title>
<path fill="none" stroke="black" d="M387,-85.07C387,-103.36 387,-128.8 387,-128.8 387,-128.8 754.73,-128.8 754.73,-128.8"/>
<polygon fill="black" stroke="black" points="754.73,-132.3 764.73,-128.8 754.73,-125.3 754.73,-132.3"/>
</g>
<!-- SharedModule -->
<g id="node10" class="node">
<title>SharedModule</title>
<polygon fill="#8dd3c7" stroke="black" points="292.42,-84.8 289.42,-88.8 268.42,-88.8 265.42,-84.8 193.58,-84.8 193.58,-48.8 292.42,-48.8 292.42,-84.8"/>
<text text-anchor="middle" x="243" y="-62.6" font-family="Times,serif" font-size="14.00">SharedModule</text>
</g>
<!-- SharedModule&#45;&gt;BookModule -->
<g id="edge9" class="edge">
<title>SharedModule&#45;&gt;BookModule</title>
<path fill="none" stroke="black" d="M243,-84.93C243,-105.37 243,-135.8 243,-135.8 243,-135.8 755.03,-135.8 755.03,-135.8"/>
<polygon fill="black" stroke="black" points="755.03,-139.3 765.03,-135.8 755.03,-132.3 755.03,-139.3"/>
</g>
<!-- BookValidation -->
<g id="node11" class="node">
<title>BookValidation</title>
<ellipse fill="#fdb462" stroke="black" cx="97" cy="-66.8" rx="72.95" ry="18"/>
<text text-anchor="middle" x="97" y="-62.6" font-family="Times,serif" font-size="14.00">BookValidation</text>
</g>
<!-- BookValidation&#45;&gt;BookModule -->
<g id="edge10" class="edge">
<title>BookValidation&#45;&gt;BookModule</title>
<path fill="none" stroke="black" d="M97,-84.81C97,-107.29 97,-142.8 97,-142.8 97,-142.8 754.86,-142.8 754.86,-142.8"/>
<polygon fill="black" stroke="black" points="754.86,-146.3 764.86,-142.8 754.86,-139.3 754.86,-146.3"/>
</g>
</g>
</svg>
