<?xml version="1.0" encoding="UTF-8" standalone="no"?>
<!DOCTYPE svg PUBLIC "-//W3C//DTD SVG 1.1//EN"
 "http://www.w3.org/Graphics/SVG/1.1/DTD/svg11.dtd">
<!-- Generated by graphviz version 2.47.3 (20210619.1520)
 -->
<!-- Title: dependencies Pages: 1 -->
<svg width="819pt" height="174pt"
 viewBox="0.00 0.00 819.00 173.80" xmlns="http://www.w3.org/2000/svg" xmlns:xlink="http://www.w3.org/1999/xlink">
<g id="graph0" class="graph" transform="scale(1 1) rotate(0) translate(4 169.8)">
<title>dependencies</title>
<polygon fill="white" stroke="transparent" points="-4,4 -4,-169.8 815,-169.8 815,4 -4,4"/>
<text text-anchor="middle" x="405.5" y="-8.2" font-family="sans-serif" font-size="14.00">dependencies</text>
<g id="clust1" class="cluster">
<title>cluster_SettingsModule</title>
<polygon fill="none" stroke="black" stroke-dasharray="1,5" points="8,-32.8 8,-157.8 803,-157.8 803,-32.8 8,-32.8"/>
</g>
<g id="clust7" class="cluster">
<title>cluster_SettingsModule_imports</title>
<polygon fill="none" stroke="black" points="681,-40.8 681,-92.8 795,-92.8 795,-40.8 681,-40.8"/>
</g>
<g id="clust2" class="cluster">
<title>cluster_SettingsModule_declarations</title>
<polygon fill="none" stroke="black" points="16,-40.8 16,-92.8 673,-92.8 673,-40.8 16,-40.8"/>
</g>
<!-- EditSettingsComponent -->
<g id="node1" class="node">
<title>EditSettingsComponent</title>
<polygon fill="#ffffb3" stroke="black" points="664.78,-84.8 515.22,-84.8 515.22,-48.8 664.78,-48.8 664.78,-84.8"/>
<text text-anchor="middle" x="590" y="-62.6" font-family="Times,serif" font-size="14.00">EditSettingsComponent</text>
</g>
<!-- SettingsModule -->
<g id="node5" class="node">
<title>SettingsModule</title>
<polygon fill="#8dd3c7" stroke="black" points="486.16,-149.8 483.16,-153.8 462.16,-153.8 459.16,-149.8 381.84,-149.8 381.84,-113.8 486.16,-113.8 486.16,-149.8"/>
<text text-anchor="middle" x="434" y="-127.6" font-family="Times,serif" font-size="14.00">SettingsModule</text>
</g>
<!-- EditSettingsComponent&#45;&gt;SettingsModule -->
<g id="edge1" class="edge">
<title>EditSettingsComponent&#45;&gt;SettingsModule</title>
<path fill="none" stroke="black" d="M590,-84.82C590,-102.17 590,-125.8 590,-125.8 590,-125.8 496.38,-125.8 496.38,-125.8"/>
<polygon fill="black" stroke="black" points="496.38,-122.3 486.38,-125.8 496.38,-129.3 496.38,-122.3"/>
</g>
<!-- SettingsComponent -->
<g id="node2" class="node">
<title>SettingsComponent</title>
<polygon fill="#ffffb3" stroke="black" points="497.45,-84.8 370.55,-84.8 370.55,-48.8 497.45,-48.8 497.45,-84.8"/>
<text text-anchor="middle" x="434" y="-62.6" font-family="Times,serif" font-size="14.00">SettingsComponent</text>
</g>
<!-- SettingsComponent&#45;&gt;SettingsModule -->
<g id="edge2" class="edge">
<title>SettingsComponent&#45;&gt;SettingsModule</title>
<path fill="none" stroke="black" d="M434,-84.91C434,-84.91 434,-103.79 434,-103.79"/>
<polygon fill="black" stroke="black" points="430.5,-103.79 434,-113.79 437.5,-103.79 430.5,-103.79"/>
</g>
<!-- SettingsListComponent -->
<g id="node3" class="node">
<title>SettingsListComponent</title>
<polygon fill="#ffffb3" stroke="black" points="353.22,-84.8 204.78,-84.8 204.78,-48.8 353.22,-48.8 353.22,-84.8"/>
<text text-anchor="middle" x="279" y="-62.6" font-family="Times,serif" font-size="14.00">SettingsListComponent</text>
</g>
<!-- SettingsListComponent&#45;&gt;SettingsModule -->
<g id="edge3" class="edge">
<title>SettingsListComponent&#45;&gt;SettingsModule</title>
<path fill="none" stroke="black" d="M279,-84.82C279,-102.17 279,-125.8 279,-125.8 279,-125.8 371.52,-125.8 371.52,-125.8"/>
<polygon fill="black" stroke="black" points="371.52,-129.3 381.52,-125.8 371.52,-122.3 371.52,-129.3"/>
</g>
<!-- SettingsModalComponent -->
<g id="node4" class="node">
<title>SettingsModalComponent</title>
<polygon fill="#ffffb3" stroke="black" points="186.5,-84.8 23.5,-84.8 23.5,-48.8 186.5,-48.8 186.5,-84.8"/>
<text text-anchor="middle" x="105" y="-62.6" font-family="Times,serif" font-size="14.00">SettingsModalComponent</text>
</g>
<!-- SettingsModalComponent&#45;&gt;SettingsModule -->
<g id="edge4" class="edge">
<title>SettingsModalComponent&#45;&gt;SettingsModule</title>
<path fill="none" stroke="black" d="M105,-85.08C105,-106.12 105,-137.8 105,-137.8 105,-137.8 371.51,-137.8 371.51,-137.8"/>
<polygon fill="black" stroke="black" points="371.51,-141.3 381.51,-137.8 371.51,-134.3 371.51,-141.3"/>
</g>
<!-- SharedModule -->
<g id="node6" class="node">
<title>SharedModule</title>
<polygon fill="#8dd3c7" stroke="black" points="787.42,-84.8 784.42,-88.8 763.42,-88.8 760.42,-84.8 688.58,-84.8 688.58,-48.8 787.42,-48.8 787.42,-84.8"/>
<text text-anchor="middle" x="738" y="-62.6" font-family="Times,serif" font-size="14.00">SharedModule</text>
</g>
<!-- SharedModule&#45;&gt;SettingsModule -->
<g id="edge5" class="edge">
<title>SharedModule&#45;&gt;SettingsModule</title>
<path fill="none" stroke="black" d="M738,-85.08C738,-106.12 738,-137.8 738,-137.8 738,-137.8 496.26,-137.8 496.26,-137.8"/>
<polygon fill="black" stroke="black" points="496.26,-134.3 486.26,-137.8 496.26,-141.3 496.26,-134.3"/>
</g>
</g>
</svg>
