<?xml version="1.0" encoding="UTF-8" standalone="no"?>
<!DOCTYPE svg PUBLIC "-//W3C//DTD SVG 1.1//EN"
 "http://www.w3.org/Graphics/SVG/1.1/DTD/svg11.dtd">
<!-- Generated by graphviz version 2.47.3 (20210619.1520)
 -->
<!-- Title: dependencies Pages: 1 -->
<svg width="1124pt" height="174pt"
 viewBox="0.00 0.00 1124.00 173.80" xmlns="http://www.w3.org/2000/svg" xmlns:xlink="http://www.w3.org/1999/xlink">
<g id="graph0" class="graph" transform="scale(1 1) rotate(0) translate(4 169.8)">
<title>dependencies</title>
<polygon fill="white" stroke="transparent" points="-4,4 -4,-169.8 1120,-169.8 1120,4 -4,4"/>
<text text-anchor="middle" x="558" y="-8.2" font-family="sans-serif" font-size="14.00">dependencies</text>
<g id="clust1" class="cluster">
<title>cluster_WriterModule</title>
<polygon fill="none" stroke="black" stroke-dasharray="1,5" points="8,-32.8 8,-157.8 1108,-157.8 1108,-32.8 8,-32.8"/>
</g>
<g id="clust11" class="cluster">
<title>cluster_WriterModule_providers</title>
<polygon fill="none" stroke="black" points="930,-40.8 930,-92.8 1100,-92.8 1100,-40.8 930,-40.8"/>
</g>
<g id="clust8" class="cluster">
<title>cluster_WriterModule_imports</title>
<polygon fill="none" stroke="black" points="808,-40.8 808,-92.8 922,-92.8 922,-40.8 808,-40.8"/>
</g>
<g id="clust2" class="cluster">
<title>cluster_WriterModule_declarations</title>
<polygon fill="none" stroke="black" points="16,-40.8 16,-92.8 800,-92.8 800,-40.8 16,-40.8"/>
</g>
<!-- AddWriterComponent -->
<g id="node1" class="node">
<title>AddWriterComponent</title>
<polygon fill="#ffffb3" stroke="black" points="791.97,-84.8 650.03,-84.8 650.03,-48.8 791.97,-48.8 791.97,-84.8"/>
<text text-anchor="middle" x="721" y="-62.6" font-family="Times,serif" font-size="14.00">AddWriterComponent</text>
</g>
<!-- WriterModule -->
<g id="node6" class="node">
<title>WriterModule</title>
<polygon fill="#8dd3c7" stroke="black" points="609.08,-149.8 606.08,-153.8 585.08,-153.8 582.08,-149.8 512.92,-149.8 512.92,-113.8 609.08,-113.8 609.08,-149.8"/>
<text text-anchor="middle" x="561" y="-127.6" font-family="Times,serif" font-size="14.00">WriterModule</text>
</g>
<!-- AddWriterComponent&#45;&gt;WriterModule -->
<g id="edge1" class="edge">
<title>AddWriterComponent&#45;&gt;WriterModule</title>
<path fill="none" stroke="black" d="M721,-84.83C721,-101.2 721,-122.8 721,-122.8 721,-122.8 619.44,-122.8 619.44,-122.8"/>
<polygon fill="black" stroke="black" points="619.44,-119.3 609.44,-122.8 619.44,-126.3 619.44,-119.3"/>
</g>
<!-- EditWriterComponent -->
<g id="node2" class="node">
<title>EditWriterComponent</title>
<polygon fill="#ffffb3" stroke="black" points="631.7,-84.8 490.3,-84.8 490.3,-48.8 631.7,-48.8 631.7,-84.8"/>
<text text-anchor="middle" x="561" y="-62.6" font-family="Times,serif" font-size="14.00">EditWriterComponent</text>
</g>
<!-- EditWriterComponent&#45;&gt;WriterModule -->
<g id="edge2" class="edge">
<title>EditWriterComponent&#45;&gt;WriterModule</title>
<path fill="none" stroke="black" d="M561,-84.91C561,-84.91 561,-103.79 561,-103.79"/>
<polygon fill="black" stroke="black" points="557.5,-103.79 561,-113.79 564.5,-103.79 557.5,-103.79"/>
</g>
<!-- WriterComponent -->
<g id="node3" class="node">
<title>WriterComponent</title>
<polygon fill="#ffffb3" stroke="black" points="471.86,-84.8 354.14,-84.8 354.14,-48.8 471.86,-48.8 471.86,-84.8"/>
<text text-anchor="middle" x="413" y="-62.6" font-family="Times,serif" font-size="14.00">WriterComponent</text>
</g>
<!-- WriterComponent&#45;&gt;WriterModule -->
<g id="edge3" class="edge">
<title>WriterComponent&#45;&gt;WriterModule</title>
<path fill="none" stroke="black" d="M413,-84.83C413,-101.2 413,-122.8 413,-122.8 413,-122.8 502.95,-122.8 502.95,-122.8"/>
<polygon fill="black" stroke="black" points="502.95,-126.3 512.95,-122.8 502.95,-119.3 502.95,-126.3"/>
</g>
<!-- WriterListComponent -->
<g id="node4" class="node">
<title>WriterListComponent</title>
<polygon fill="#ffffb3" stroke="black" points="335.64,-84.8 196.36,-84.8 196.36,-48.8 335.64,-48.8 335.64,-84.8"/>
<text text-anchor="middle" x="266" y="-62.6" font-family="Times,serif" font-size="14.00">WriterListComponent</text>
</g>
<!-- WriterListComponent&#45;&gt;WriterModule -->
<g id="edge4" class="edge">
<title>WriterListComponent&#45;&gt;WriterModule</title>
<path fill="none" stroke="black" d="M266,-84.91C266,-104.14 266,-131.8 266,-131.8 266,-131.8 502.95,-131.8 502.95,-131.8"/>
<polygon fill="black" stroke="black" points="502.95,-135.3 512.95,-131.8 502.95,-128.3 502.95,-135.3"/>
</g>
<!-- WriterModalComponent -->
<g id="node5" class="node">
<title>WriterModalComponent</title>
<polygon fill="#ffffb3" stroke="black" points="178.41,-84.8 23.59,-84.8 23.59,-48.8 178.41,-48.8 178.41,-84.8"/>
<text text-anchor="middle" x="101" y="-62.6" font-family="Times,serif" font-size="14.00">WriterModalComponent</text>
</g>
<!-- WriterModalComponent&#45;&gt;WriterModule -->
<g id="edge5" class="edge">
<title>WriterModalComponent&#45;&gt;WriterModule</title>
<path fill="none" stroke="black" d="M101,-85.09C101,-107.01 101,-140.8 101,-140.8 101,-140.8 502.64,-140.8 502.64,-140.8"/>
<polygon fill="black" stroke="black" points="502.64,-144.3 512.64,-140.8 502.64,-137.3 502.64,-144.3"/>
</g>
<!-- SharedModule -->
<g id="node7" class="node">
<title>SharedModule</title>
<polygon fill="#8dd3c7" stroke="black" points="914.42,-84.8 911.42,-88.8 890.42,-88.8 887.42,-84.8 815.58,-84.8 815.58,-48.8 914.42,-48.8 914.42,-84.8"/>
<text text-anchor="middle" x="865" y="-62.6" font-family="Times,serif" font-size="14.00">SharedModule</text>
</g>
<!-- SharedModule&#45;&gt;WriterModule -->
<g id="edge6" class="edge">
<title>SharedModule&#45;&gt;WriterModule</title>
<path fill="none" stroke="black" d="M865,-84.91C865,-104.14 865,-131.8 865,-131.8 865,-131.8 619.17,-131.8 619.17,-131.8"/>
<polygon fill="black" stroke="black" points="619.17,-128.3 609.17,-131.8 619.17,-135.3 619.17,-128.3"/>
</g>
<!-- WriterValidation -->
<g id="node8" class="node">
<title>WriterValidation</title>
<ellipse fill="#fdb462" stroke="black" cx="1015" cy="-66.8" rx="77" ry="18"/>
<text text-anchor="middle" x="1015" y="-62.6" font-family="Times,serif" font-size="14.00">WriterValidation</text>
</g>
<!-- WriterValidation&#45;&gt;WriterModule -->
<g id="edge7" class="edge">
<title>WriterValidation&#45;&gt;WriterModule</title>
<path fill="none" stroke="black" d="M1015,-85.09C1015,-107.01 1015,-140.8 1015,-140.8 1015,-140.8 619.16,-140.8 619.16,-140.8"/>
<polygon fill="black" stroke="black" points="619.16,-137.3 609.16,-140.8 619.16,-144.3 619.16,-137.3"/>
</g>
</g>
</svg>
