<?xml version="1.0" encoding="UTF-8" standalone="no"?>
<!DOCTYPE svg PUBLIC "-//W3C//DTD SVG 1.1//EN"
 "http://www.w3.org/Graphics/SVG/1.1/DTD/svg11.dtd">
<!-- Generated by graphviz version 2.47.3 (20210619.1520)
 -->
<!-- Title: dependencies Pages: 1 -->
<svg width="1374pt" height="174pt"
 viewBox="0.00 0.00 1374.00 173.80" xmlns="http://www.w3.org/2000/svg" xmlns:xlink="http://www.w3.org/1999/xlink">
<g id="graph0" class="graph" transform="scale(1 1) rotate(0) translate(4 169.8)">
<title>dependencies</title>
<polygon fill="white" stroke="transparent" points="-4,4 -4,-169.8 1370,-169.8 1370,4 -4,4"/>
<text text-anchor="middle" x="683" y="-8.2" font-family="sans-serif" font-size="14.00">dependencies</text>
<g id="clust1" class="cluster">
<title>cluster_TypememberModule</title>
<polygon fill="none" stroke="black" stroke-dasharray="1,5" points="8,-32.8 8,-157.8 1358,-157.8 1358,-32.8 8,-32.8"/>
</g>
<g id="clust11" class="cluster">
<title>cluster_TypememberModule_providers</title>
<polygon fill="none" stroke="black" points="1126,-40.8 1126,-92.8 1350,-92.8 1350,-40.8 1126,-40.8"/>
</g>
<g id="clust2" class="cluster">
<title>cluster_TypememberModule_declarations</title>
<polygon fill="none" stroke="black" points="138,-40.8 138,-92.8 1118,-92.8 1118,-40.8 138,-40.8"/>
</g>
<g id="clust8" class="cluster">
<title>cluster_TypememberModule_imports</title>
<polygon fill="none" stroke="black" points="16,-40.8 16,-92.8 130,-92.8 130,-40.8 16,-40.8"/>
</g>
<!-- AddTypeMemberComponent -->
<g id="node1" class="node">
<title>AddTypeMemberComponent</title>
<polygon fill="#ffffb3" stroke="black" points="1109.63,-84.8 928.37,-84.8 928.37,-48.8 1109.63,-48.8 1109.63,-84.8"/>
<text text-anchor="middle" x="1019" y="-62.6" font-family="Times,serif" font-size="14.00">AddTypeMemberComponent</text>
</g>
<!-- TypememberModule -->
<g id="node6" class="node">
<title>TypememberModule</title>
<polygon fill="#8dd3c7" stroke="black" points="682.19,-149.8 679.19,-153.8 658.19,-153.8 655.19,-149.8 547.81,-149.8 547.81,-113.8 682.19,-113.8 682.19,-149.8"/>
<text text-anchor="middle" x="615" y="-127.6" font-family="Times,serif" font-size="14.00">TypememberModule</text>
</g>
<!-- AddTypeMemberComponent&#45;&gt;TypememberModule -->
<g id="edge1" class="edge">
<title>AddTypeMemberComponent&#45;&gt;TypememberModule</title>
<path fill="none" stroke="black" d="M1019,-84.91C1019,-104.14 1019,-131.8 1019,-131.8 1019,-131.8 692.17,-131.8 692.17,-131.8"/>
<polygon fill="black" stroke="black" points="692.17,-128.3 682.17,-131.8 692.17,-135.3 692.17,-128.3"/>
</g>
<!-- EditTypeMemberComponent -->
<g id="node2" class="node">
<title>EditTypeMemberComponent</title>
<polygon fill="#ffffb3" stroke="black" points="910.36,-84.8 729.64,-84.8 729.64,-48.8 910.36,-48.8 910.36,-84.8"/>
<text text-anchor="middle" x="820" y="-62.6" font-family="Times,serif" font-size="14.00">EditTypeMemberComponent</text>
</g>
<!-- EditTypeMemberComponent&#45;&gt;TypememberModule -->
<g id="edge2" class="edge">
<title>EditTypeMemberComponent&#45;&gt;TypememberModule</title>
<path fill="none" stroke="black" d="M820,-84.83C820,-101.2 820,-122.8 820,-122.8 820,-122.8 692.12,-122.8 692.12,-122.8"/>
<polygon fill="black" stroke="black" points="692.12,-119.3 682.12,-122.8 692.12,-126.3 692.12,-119.3"/>
</g>
<!-- ModalTypeMemberComponent -->
<g id="node3" class="node">
<title>ModalTypeMemberComponent</title>
<polygon fill="#ffffb3" stroke="black" points="712.07,-84.8 517.93,-84.8 517.93,-48.8 712.07,-48.8 712.07,-84.8"/>
<text text-anchor="middle" x="615" y="-62.6" font-family="Times,serif" font-size="14.00">ModalTypeMemberComponent</text>
</g>
<!-- ModalTypeMemberComponent&#45;&gt;TypememberModule -->
<g id="edge3" class="edge">
<title>ModalTypeMemberComponent&#45;&gt;TypememberModule</title>
<path fill="none" stroke="black" d="M615,-84.91C615,-84.91 615,-103.79 615,-103.79"/>
<polygon fill="black" stroke="black" points="611.5,-103.79 615,-113.79 618.5,-103.79 611.5,-103.79"/>
</g>
<!-- TypeMemberComponent -->
<g id="node4" class="node">
<title>TypeMemberComponent</title>
<polygon fill="#ffffb3" stroke="black" points="499.53,-84.8 342.47,-84.8 342.47,-48.8 499.53,-48.8 499.53,-84.8"/>
<text text-anchor="middle" x="421" y="-62.6" font-family="Times,serif" font-size="14.00">TypeMemberComponent</text>
</g>
<!-- TypeMemberComponent&#45;&gt;TypememberModule -->
<g id="edge4" class="edge">
<title>TypeMemberComponent&#45;&gt;TypememberModule</title>
<path fill="none" stroke="black" d="M421,-84.83C421,-101.2 421,-122.8 421,-122.8 421,-122.8 537.69,-122.8 537.69,-122.8"/>
<polygon fill="black" stroke="black" points="537.69,-126.3 547.69,-122.8 537.69,-119.3 537.69,-126.3"/>
</g>
<!-- TypememberListComponent -->
<g id="node5" class="node">
<title>TypememberListComponent</title>
<polygon fill="#ffffb3" stroke="black" points="323.75,-84.8 146.25,-84.8 146.25,-48.8 323.75,-48.8 323.75,-84.8"/>
<text text-anchor="middle" x="235" y="-62.6" font-family="Times,serif" font-size="14.00">TypememberListComponent</text>
</g>
<!-- TypememberListComponent&#45;&gt;TypememberModule -->
<g id="edge5" class="edge">
<title>TypememberListComponent&#45;&gt;TypememberModule</title>
<path fill="none" stroke="black" d="M235,-84.91C235,-104.14 235,-131.8 235,-131.8 235,-131.8 537.5,-131.8 537.5,-131.8"/>
<polygon fill="black" stroke="black" points="537.5,-135.3 547.5,-131.8 537.5,-128.3 537.5,-135.3"/>
</g>
<!-- SharedModule -->
<g id="node7" class="node">
<title>SharedModule</title>
<polygon fill="#8dd3c7" stroke="black" points="122.42,-84.8 119.42,-88.8 98.42,-88.8 95.42,-84.8 23.58,-84.8 23.58,-48.8 122.42,-48.8 122.42,-84.8"/>
<text text-anchor="middle" x="73" y="-62.6" font-family="Times,serif" font-size="14.00">SharedModule</text>
</g>
<!-- SharedModule&#45;&gt;TypememberModule -->
<g id="edge6" class="edge">
<title>SharedModule&#45;&gt;TypememberModule</title>
<path fill="none" stroke="black" d="M73,-85.09C73,-107.01 73,-140.8 73,-140.8 73,-140.8 537.72,-140.8 537.72,-140.8"/>
<polygon fill="black" stroke="black" points="537.72,-144.3 547.72,-140.8 537.72,-137.3 537.72,-144.3"/>
</g>
<!-- TypeMemberValidation -->
<g id="node8" class="node">
<title>TypeMemberValidation</title>
<ellipse fill="#fdb462" stroke="black" cx="1238" cy="-66.8" rx="104.21" ry="18"/>
<text text-anchor="middle" x="1238" y="-62.6" font-family="Times,serif" font-size="14.00">TypeMemberValidation</text>
</g>
<!-- TypeMemberValidation&#45;&gt;TypememberModule -->
<g id="edge7" class="edge">
<title>TypeMemberValidation&#45;&gt;TypememberModule</title>
<path fill="none" stroke="black" d="M1238,-85.09C1238,-107.01 1238,-140.8 1238,-140.8 1238,-140.8 692.26,-140.8 692.26,-140.8"/>
<polygon fill="black" stroke="black" points="692.26,-137.3 682.26,-140.8 692.26,-144.3 692.26,-137.3"/>
</g>
</g>
</svg>
