<?xml version="1.0" encoding="UTF-8" standalone="no"?>
<!DOCTYPE svg PUBLIC "-//W3C//DTD SVG 1.1//EN"
 "http://www.w3.org/Graphics/SVG/1.1/DTD/svg11.dtd">
<!-- Generated by graphviz version 2.47.3 (20210619.1520)
 -->
<!-- Title: dependencies Pages: 1 -->
<svg width="1226pt" height="174pt"
 viewBox="0.00 0.00 1226.00 173.80" xmlns="http://www.w3.org/2000/svg" xmlns:xlink="http://www.w3.org/1999/xlink">
<g id="graph0" class="graph" transform="scale(1 1) rotate(0) translate(4 169.8)">
<title>dependencies</title>
<polygon fill="white" stroke="transparent" points="-4,4 -4,-169.8 1222,-169.8 1222,4 -4,4"/>
<text text-anchor="middle" x="609" y="-8.2" font-family="sans-serif" font-size="14.00">dependencies</text>
<g id="clust1" class="cluster">
<title>cluster_PublishersModule</title>
<polygon fill="none" stroke="black" stroke-dasharray="1,5" points="8,-32.8 8,-157.8 1210,-157.8 1210,-32.8 8,-32.8"/>
</g>
<g id="clust8" class="cluster">
<title>cluster_PublishersModule_imports</title>
<polygon fill="none" stroke="black" points="1088,-40.8 1088,-92.8 1202,-92.8 1202,-40.8 1088,-40.8"/>
</g>
<g id="clust11" class="cluster">
<title>cluster_PublishersModule_providers</title>
<polygon fill="none" stroke="black" points="888,-40.8 888,-92.8 1080,-92.8 1080,-40.8 888,-40.8"/>
</g>
<g id="clust2" class="cluster">
<title>cluster_PublishersModule_declarations</title>
<polygon fill="none" stroke="black" points="16,-40.8 16,-92.8 880,-92.8 880,-40.8 16,-40.8"/>
</g>
<!-- AddPublisherComponent -->
<g id="node1" class="node">
<title>AddPublisherComponent</title>
<polygon fill="#ffffb3" stroke="black" points="872.32,-84.8 713.68,-84.8 713.68,-48.8 872.32,-48.8 872.32,-84.8"/>
<text text-anchor="middle" x="793" y="-62.6" font-family="Times,serif" font-size="14.00">AddPublisherComponent</text>
</g>
<!-- PublishersModule -->
<g id="node6" class="node">
<title>PublishersModule</title>
<polygon fill="#8dd3c7" stroke="black" points="675.88,-149.8 672.88,-153.8 651.88,-153.8 648.88,-149.8 558.12,-149.8 558.12,-113.8 675.88,-113.8 675.88,-149.8"/>
<text text-anchor="middle" x="617" y="-127.6" font-family="Times,serif" font-size="14.00">PublishersModule</text>
</g>
<!-- AddPublisherComponent&#45;&gt;PublishersModule -->
<g id="edge1" class="edge">
<title>AddPublisherComponent&#45;&gt;PublishersModule</title>
<path fill="none" stroke="black" d="M793,-84.83C793,-101.2 793,-122.8 793,-122.8 793,-122.8 686.1,-122.8 686.1,-122.8"/>
<polygon fill="black" stroke="black" points="686.1,-119.3 676.1,-122.8 686.1,-126.3 686.1,-119.3"/>
</g>
<!-- EditPublisherComponent -->
<g id="node2" class="node">
<title>EditPublisherComponent</title>
<polygon fill="#ffffb3" stroke="black" points="695.55,-84.8 538.45,-84.8 538.45,-48.8 695.55,-48.8 695.55,-84.8"/>
<text text-anchor="middle" x="617" y="-62.6" font-family="Times,serif" font-size="14.00">EditPublisherComponent</text>
</g>
<!-- EditPublisherComponent&#45;&gt;PublishersModule -->
<g id="edge2" class="edge">
<title>EditPublisherComponent&#45;&gt;PublishersModule</title>
<path fill="none" stroke="black" d="M617,-84.91C617,-84.91 617,-103.79 617,-103.79"/>
<polygon fill="black" stroke="black" points="613.5,-103.79 617,-113.79 620.5,-103.79 613.5,-103.79"/>
</g>
<!-- PublisherComponent -->
<g id="node3" class="node">
<title>PublisherComponent</title>
<polygon fill="#ffffb3" stroke="black" points="520.22,-84.8 385.78,-84.8 385.78,-48.8 520.22,-48.8 520.22,-84.8"/>
<text text-anchor="middle" x="453" y="-62.6" font-family="Times,serif" font-size="14.00">PublisherComponent</text>
</g>
<!-- PublisherComponent&#45;&gt;PublishersModule -->
<g id="edge3" class="edge">
<title>PublisherComponent&#45;&gt;PublishersModule</title>
<path fill="none" stroke="black" d="M453,-84.83C453,-101.2 453,-122.8 453,-122.8 453,-122.8 547.79,-122.8 547.79,-122.8"/>
<polygon fill="black" stroke="black" points="547.79,-126.3 557.79,-122.8 547.79,-119.3 547.79,-126.3"/>
</g>
<!-- PublisherListComponent -->
<g id="node4" class="node">
<title>PublisherListComponent</title>
<polygon fill="#ffffb3" stroke="black" points="367.99,-84.8 212.01,-84.8 212.01,-48.8 367.99,-48.8 367.99,-84.8"/>
<text text-anchor="middle" x="290" y="-62.6" font-family="Times,serif" font-size="14.00">PublisherListComponent</text>
</g>
<!-- PublisherListComponent&#45;&gt;PublishersModule -->
<g id="edge4" class="edge">
<title>PublisherListComponent&#45;&gt;PublishersModule</title>
<path fill="none" stroke="black" d="M290,-84.91C290,-104.14 290,-131.8 290,-131.8 290,-131.8 547.78,-131.8 547.78,-131.8"/>
<polygon fill="black" stroke="black" points="547.78,-135.3 557.78,-131.8 547.78,-128.3 547.78,-135.3"/>
</g>
<!-- PublisherModalComponent -->
<g id="node5" class="node">
<title>PublisherModalComponent</title>
<polygon fill="#ffffb3" stroke="black" points="194.27,-84.8 23.73,-84.8 23.73,-48.8 194.27,-48.8 194.27,-84.8"/>
<text text-anchor="middle" x="109" y="-62.6" font-family="Times,serif" font-size="14.00">PublisherModalComponent</text>
</g>
<!-- PublisherModalComponent&#45;&gt;PublishersModule -->
<g id="edge5" class="edge">
<title>PublisherModalComponent&#45;&gt;PublishersModule</title>
<path fill="none" stroke="black" d="M109,-85.09C109,-107.01 109,-140.8 109,-140.8 109,-140.8 547.73,-140.8 547.73,-140.8"/>
<polygon fill="black" stroke="black" points="547.73,-144.3 557.73,-140.8 547.73,-137.3 547.73,-144.3"/>
</g>
<!-- SharedModule -->
<g id="node7" class="node">
<title>SharedModule</title>
<polygon fill="#8dd3c7" stroke="black" points="1194.42,-84.8 1191.42,-88.8 1170.42,-88.8 1167.42,-84.8 1095.58,-84.8 1095.58,-48.8 1194.42,-48.8 1194.42,-84.8"/>
<text text-anchor="middle" x="1145" y="-62.6" font-family="Times,serif" font-size="14.00">SharedModule</text>
</g>
<!-- SharedModule&#45;&gt;PublishersModule -->
<g id="edge6" class="edge">
<title>SharedModule&#45;&gt;PublishersModule</title>
<path fill="none" stroke="black" d="M1145,-85.09C1145,-107.01 1145,-140.8 1145,-140.8 1145,-140.8 686.03,-140.8 686.03,-140.8"/>
<polygon fill="black" stroke="black" points="686.03,-137.3 676.03,-140.8 686.03,-144.3 686.03,-137.3"/>
</g>
<!-- PublisherValidation -->
<g id="node8" class="node">
<title>PublisherValidation</title>
<ellipse fill="#fdb462" stroke="black" cx="984" cy="-66.8" rx="88.06" ry="18"/>
<text text-anchor="middle" x="984" y="-62.6" font-family="Times,serif" font-size="14.00">PublisherValidation</text>
</g>
<!-- PublisherValidation&#45;&gt;PublishersModule -->
<g id="edge7" class="edge">
<title>PublisherValidation&#45;&gt;PublishersModule</title>
<path fill="none" stroke="black" d="M984,-84.91C984,-104.14 984,-131.8 984,-131.8 984,-131.8 685.96,-131.8 685.96,-131.8"/>
<polygon fill="black" stroke="black" points="685.96,-128.3 675.96,-131.8 685.96,-135.3 685.96,-128.3"/>
</g>
</g>
</svg>
