<?xml version="1.0" encoding="UTF-8" standalone="no"?>
<!DOCTYPE svg PUBLIC "-//W3C//DTD SVG 1.1//EN"
 "http://www.w3.org/Graphics/SVG/1.1/DTD/svg11.dtd">
<!-- Generated by graphviz version 2.47.3 (20210619.1520)
 -->
<!-- Title: dependencies Pages: 1 -->
<svg width="1482pt" height="174pt"
 viewBox="0.00 0.00 1482.00 173.80" xmlns="http://www.w3.org/2000/svg" xmlns:xlink="http://www.w3.org/1999/xlink">
<g id="graph0" class="graph" transform="scale(1 1) rotate(0) translate(4 169.8)">
<title>dependencies</title>
<polygon fill="white" stroke="transparent" points="-4,4 -4,-169.8 1478,-169.8 1478,4 -4,4"/>
<text text-anchor="middle" x="737" y="-8.2" font-family="sans-serif" font-size="14.00">dependencies</text>
<g id="clust1" class="cluster">
<title>cluster_CirculationsModule</title>
<polygon fill="none" stroke="black" stroke-dasharray="1,5" points="8,-32.8 8,-157.8 1466,-157.8 1466,-32.8 8,-32.8"/>
</g>
<g id="clust2" class="cluster">
<title>cluster_CirculationsModule_declarations</title>
<polygon fill="none" stroke="black" points="352,-40.8 352,-92.8 1458,-92.8 1458,-40.8 352,-40.8"/>
</g>
<g id="clust9" class="cluster">
<title>cluster_CirculationsModule_imports</title>
<polygon fill="none" stroke="black" points="230,-40.8 230,-92.8 344,-92.8 344,-40.8 230,-40.8"/>
</g>
<g id="clust12" class="cluster">
<title>cluster_CirculationsModule_providers</title>
<polygon fill="none" stroke="black" points="16,-40.8 16,-92.8 222,-92.8 222,-40.8 16,-40.8"/>
</g>
<!-- AddCirculationComponent -->
<g id="node1" class="node">
<title>AddCirculationComponent</title>
<polygon fill="#ffffb3" stroke="black" points="1450.43,-84.8 1281.57,-84.8 1281.57,-48.8 1450.43,-48.8 1450.43,-84.8"/>
<text text-anchor="middle" x="1366" y="-62.6" font-family="Times,serif" font-size="14.00">AddCirculationComponent</text>
</g>
<!-- CirculationsModule -->
<g id="node7" class="node">
<title>CirculationsModule</title>
<polygon fill="#8dd3c7" stroke="black" points="795.98,-149.8 792.98,-153.8 771.98,-153.8 768.98,-149.8 668.02,-149.8 668.02,-113.8 795.98,-113.8 795.98,-149.8"/>
<text text-anchor="middle" x="732" y="-127.6" font-family="Times,serif" font-size="14.00">CirculationsModule</text>
</g>
<!-- AddCirculationComponent&#45;&gt;CirculationsModule -->
<g id="edge1" class="edge">
<title>AddCirculationComponent&#45;&gt;CirculationsModule</title>
<path fill="none" stroke="black" d="M1366,-85.09C1366,-107.01 1366,-140.8 1366,-140.8 1366,-140.8 805.99,-140.8 805.99,-140.8"/>
<polygon fill="black" stroke="black" points="805.99,-137.3 795.99,-140.8 805.99,-144.3 805.99,-137.3"/>
</g>
<!-- CirculationComponent -->
<g id="node2" class="node">
<title>CirculationComponent</title>
<polygon fill="#ffffb3" stroke="black" points="1264.32,-84.8 1119.68,-84.8 1119.68,-48.8 1264.32,-48.8 1264.32,-84.8"/>
<text text-anchor="middle" x="1192" y="-62.6" font-family="Times,serif" font-size="14.00">CirculationComponent</text>
</g>
<!-- CirculationComponent&#45;&gt;CirculationsModule -->
<g id="edge2" class="edge">
<title>CirculationComponent&#45;&gt;CirculationsModule</title>
<path fill="none" stroke="black" d="M1192,-84.91C1192,-104.14 1192,-131.8 1192,-131.8 1192,-131.8 806.45,-131.8 806.45,-131.8"/>
<polygon fill="black" stroke="black" points="806.45,-128.3 796.45,-131.8 806.45,-135.3 806.45,-128.3"/>
</g>
<!-- CirculationListComponent -->
<g id="node3" class="node">
<title>CirculationListComponent</title>
<polygon fill="#ffffb3" stroke="black" points="1102.1,-84.8 935.9,-84.8 935.9,-48.8 1102.1,-48.8 1102.1,-84.8"/>
<text text-anchor="middle" x="1019" y="-62.6" font-family="Times,serif" font-size="14.00">CirculationListComponent</text>
</g>
<!-- CirculationListComponent&#45;&gt;CirculationsModule -->
<g id="edge3" class="edge">
<title>CirculationListComponent&#45;&gt;CirculationsModule</title>
<path fill="none" stroke="black" d="M1019,-84.83C1019,-101.2 1019,-122.8 1019,-122.8 1019,-122.8 806.05,-122.8 806.05,-122.8"/>
<polygon fill="black" stroke="black" points="806.05,-119.3 796.05,-122.8 806.05,-126.3 806.05,-119.3"/>
</g>
<!-- CirculationModalComponent -->
<g id="node4" class="node">
<title>CirculationModalComponent</title>
<polygon fill="#ffffb3" stroke="black" points="918.37,-84.8 737.63,-84.8 737.63,-48.8 918.37,-48.8 918.37,-84.8"/>
<text text-anchor="middle" x="828" y="-62.6" font-family="Times,serif" font-size="14.00">CirculationModalComponent</text>
</g>
<!-- CirculationModalComponent&#45;&gt;CirculationsModule -->
<g id="edge4" class="edge">
<title>CirculationModalComponent&#45;&gt;CirculationsModule</title>
<path fill="none" stroke="black" d="M766.78,-84.91C766.78,-84.91 766.78,-103.79 766.78,-103.79"/>
<polygon fill="black" stroke="black" points="763.28,-103.79 766.78,-113.79 770.28,-103.79 763.28,-103.79"/>
</g>
<!-- EditCirculationComponent -->
<g id="node5" class="node">
<title>EditCirculationComponent</title>
<polygon fill="#ffffb3" stroke="black" points="719.66,-84.8 552.34,-84.8 552.34,-48.8 719.66,-48.8 719.66,-84.8"/>
<text text-anchor="middle" x="636" y="-62.6" font-family="Times,serif" font-size="14.00">EditCirculationComponent</text>
</g>
<!-- EditCirculationComponent&#45;&gt;CirculationsModule -->
<g id="edge5" class="edge">
<title>EditCirculationComponent&#45;&gt;CirculationsModule</title>
<path fill="none" stroke="black" d="M693.92,-84.91C693.92,-84.91 693.92,-103.79 693.92,-103.79"/>
<polygon fill="black" stroke="black" points="690.42,-103.79 693.92,-113.79 697.42,-103.79 690.42,-103.79"/>
</g>
<!-- ViewCirculationComponent -->
<g id="node6" class="node">
<title>ViewCirculationComponent</title>
<polygon fill="#ffffb3" stroke="black" points="534.14,-84.8 359.86,-84.8 359.86,-48.8 534.14,-48.8 534.14,-84.8"/>
<text text-anchor="middle" x="447" y="-62.6" font-family="Times,serif" font-size="14.00">ViewCirculationComponent</text>
</g>
<!-- ViewCirculationComponent&#45;&gt;CirculationsModule -->
<g id="edge6" class="edge">
<title>ViewCirculationComponent&#45;&gt;CirculationsModule</title>
<path fill="none" stroke="black" d="M447,-84.83C447,-101.2 447,-122.8 447,-122.8 447,-122.8 657.69,-122.8 657.69,-122.8"/>
<polygon fill="black" stroke="black" points="657.69,-126.3 667.69,-122.8 657.69,-119.3 657.69,-126.3"/>
</g>
<!-- SharedModule -->
<g id="node8" class="node">
<title>SharedModule</title>
<polygon fill="#8dd3c7" stroke="black" points="336.42,-84.8 333.42,-88.8 312.42,-88.8 309.42,-84.8 237.58,-84.8 237.58,-48.8 336.42,-48.8 336.42,-84.8"/>
<text text-anchor="middle" x="287" y="-62.6" font-family="Times,serif" font-size="14.00">SharedModule</text>
</g>
<!-- SharedModule&#45;&gt;CirculationsModule -->
<g id="edge7" class="edge">
<title>SharedModule&#45;&gt;CirculationsModule</title>
<path fill="none" stroke="black" d="M287,-84.91C287,-104.14 287,-131.8 287,-131.8 287,-131.8 657.77,-131.8 657.77,-131.8"/>
<polygon fill="black" stroke="black" points="657.77,-135.3 667.77,-131.8 657.77,-128.3 657.77,-135.3"/>
</g>
<!-- CirculationValidation -->
<g id="node9" class="node">
<title>CirculationValidation</title>
<ellipse fill="#fdb462" stroke="black" cx="119" cy="-66.8" rx="95.5" ry="18"/>
<text text-anchor="middle" x="119" y="-62.6" font-family="Times,serif" font-size="14.00">CirculationValidation</text>
</g>
<!-- CirculationValidation&#45;&gt;CirculationsModule -->
<g id="edge8" class="edge">
<title>CirculationValidation&#45;&gt;CirculationsModule</title>
<path fill="none" stroke="black" d="M119,-85.09C119,-107.01 119,-140.8 119,-140.8 119,-140.8 657.85,-140.8 657.85,-140.8"/>
<polygon fill="black" stroke="black" points="657.85,-144.3 667.85,-140.8 657.85,-137.3 657.85,-144.3"/>
</g>
</g>
</svg>
